<?xml version="1.0" encoding="UTF-8"?>
<svg width="60px" height="76px" viewBox="0 0 60 76" version="1.1" xmlns="http://www.w3.org/2000/svg" xmlns:xlink="http://www.w3.org/1999/xlink">
    <title>编组</title>
    <g id="页面-1" stroke="none" stroke-width="1" fill="none" fill-rule="evenodd">
        <g id="手机" transform="translate(-165.000000, -462.000000)">
            <g id="编组" transform="translate(165.000000, 462.000000)">
                <path d="M3.60486756,0.00162754585 L56.1541722,0 C57.4914503,0 57.9763797,0.139238417 58.4652686,0.400699056 C58.9541574,0.662159695 59.3378403,1.04584256 59.5993009,1.53473144 L59.6915863,1.71955165 C59.8933956,2.15817062 60,2.67570945 60,3.8458278 L60,72.1541722 C60,73.4914503 59.8607616,73.9763797 59.5993009,74.4652686 C59.3378403,74.9541574 58.9541574,75.3378403 58.4652686,75.5993009 L58.2804483,75.6915863 C57.8418294,75.8933956 57.3242905,76 56.1541722,76 L3.8458278,76 C2.50854969,76 2.02362033,75.8607616 1.53473144,75.5993009 C1.04584256,75.3378403 0.662159695,74.9541574 0.400699056,74.4652686 L0.308413717,74.2804483 C0.121019363,73.8731593 0.0157149411,73.397822 0.00162754585,72.3951324 L0,3.8458278 C0,2.50854969 0.139238417,2.02362033 0.400699056,1.53473144 C0.662159695,1.04584256 1.04584256,0.662159695 1.53473144,0.400699056 L1.71955165,0.308413717 C2.1268407,0.121019363 2.60217799,0.0157149411 3.60486756,0.00162754585 L3.60486756,0.00162754585 Z" id="矩形" fill="#50E6FF"></path>
                <circle id="椭圆形" fill="#057093" cx="15.5" cy="16.5" r="3.5"></circle>
                <path d="M32,15 L47,15 C48.1045695,15 49,15.8954305 49,17 C49,18.1045695 48.1045695,19 47,19 L32,19 C30.8954305,19 30,18.1045695 30,17 C30,15.8954305 30.8954305,15 32,15 Z" id="矩形" fill="#057093"></path>
                <path d="M32,23 L47,23 C48.1045695,23 49,23.8954305 49,25 C49,26.1045695 48.1045695,27 47,27 L32,27 C30.8954305,27 30,26.1045695 30,25 C30,23.8954305 30.8954305,23 32,23 Z" id="矩形" fill="#057093"></path>
                <path d="M13,38 L47,38 C48.1045695,38 49,38.8954305 49,40 C49,41.1045695 48.1045695,42 47,42 L13,42 C11.8954305,42 11,41.1045695 11,40 C11,38.8954305 11.8954305,38 13,38 Z" id="矩形" fill="#057093"></path>
                <path d="M13,45 L39,45 C40.1045695,45 41,45.8954305 41,47 C41,48.1045695 40.1045695,49 39,49 L13,49 C11.8954305,49 11,48.1045695 11,47 C11,45.8954305 11.8954305,45 13,45 Z" id="矩形" fill="#057093"></path>
                <path d="M13,53 L47,53 C48.1045695,53 49,53.8954305 49,55 C49,56.1045695 48.1045695,57 47,57 L13,57 C11.8954305,57 11,56.1045695 11,55 C11,53.8954305 11.8954305,53 13,53 Z" id="矩形" fill="#057093"></path>
                <path d="M13,61 L39,61 C40.1045695,61 41,61.8954305 41,63 C41,64.1045695 40.1045695,65 39,65 L13,65 C11.8954305,65 11,64.1045695 11,63 C11,61.8954305 11.8954305,61 13,61 Z" id="矩形" fill="#057093"></path>
                <path d="M11,29 L20,29 L20,24.7457969 C19.0967271,22.5187672 17.5967271,21.4052523 15.5,21.4052523 C13.2592812,21.4052523 11.7592812,22.5187672 11,24.7457969 L11,29 Z" id="路径" fill="#057093"></path>
            </g>
        </g>
    </g>
</svg>