<?xml version="1.0" encoding="UTF-8"?>
<svg width="112px" height="67px" viewBox="0 0 112 67" version="1.1" xmlns="http://www.w3.org/2000/svg" xmlns:xlink="http://www.w3.org/1999/xlink">
    <title>icon6</title>
    <g id="页面-1" stroke="none" stroke-width="1" fill="none" fill-rule="evenodd">
        <g id="桌面端" transform="translate(-359.000000, -417.000000)" stroke="#6237FF" stroke-width="4">
            <g id="icon6" transform="translate(361.000000, 418.000000)">
                <path d="M8.97223015,-2.84217094e-14 C8.79129082,9.73291535 -0.235754388,14.7073259 0.00472022594,24.5540024 C0.486022634,44.2618169 13.5862774,44.0072748 4.22761028,64.3882968" id="路径"></path>
                <path d="M28.9722301,-2.84217094e-14 C28.7912908,9.73291535 19.7642456,14.7073259 20.0047202,24.5540024 C20.4860226,44.2618169 33.5862774,44.0072748 24.2276103,64.3882968" id="路径"></path>
                <path d="M48.9722301,-2.84217094e-14 C48.7912908,9.73291535 39.7642456,14.7073259 40.0047202,24.5540024 C40.4860226,44.2618169 53.5862774,44.0072748 44.2276103,64.3882968" id="路径"></path>
                <path d="M67.9722301,-2.84217094e-14 C67.7912908,9.73291535 58.7642456,14.7073259 59.0047202,24.5540024 C59.4860226,44.2618169 72.5862774,44.0072748 63.2276103,64.3882968" id="路径"></path>
                <path d="M87.9722301,-2.84217094e-14 C87.7912908,9.73291535 78.7642456,14.7073259 79.0047202,24.5540024 C79.4860226,44.2618169 92.5862774,44.0072748 83.2276103,64.3882968" id="路径"></path>
                <path d="M107.97223,-2.84217094e-14 C107.791291,9.73291535 98.7642456,14.7073259 99.0047202,24.5540024 C99.4860226,44.2618169 112.586277,44.0072748 103.22761,64.3882968" id="路径"></path>
            </g>
        </g>
    </g>
</svg>