<?xml version="1.0" encoding="UTF-8"?>
<svg width="105px" height="95px" viewBox="0 0 105 95" version="1.1" xmlns="http://www.w3.org/2000/svg" xmlns:xlink="http://www.w3.org/1999/xlink">
    <title>icon1</title>
    <g id="页面-1" stroke="none" stroke-width="1" fill="none" fill-rule="evenodd">
        <g id="桌面端" transform="translate(-184.000000, -268.000000)" fill="#F35568">
            <g id="icon1" transform="translate(184.000000, 268.000000)">
                <path d="M104.5,47.6390118 C104.5,72.0185757 84.393162,92.1083383 58.5010284,94.8261215 L58.5002607,80.1556335 C75.826367,77.5577274 89.0405405,63.8969667 89.0405405,47.4349206 C89.0405405,30.9728745 75.826367,17.3121138 58.5002607,14.7142077 L58.5010284,0.451902012 C84.393162,3.16968518 104.5,23.2594478 104.5,47.6390118 Z M45.4996282,0.565753855 L45.5004764,14.8770601 C28.6681147,17.8408578 15.9594595,31.2908291 15.9594595,47.4349206 C15.9594595,63.5790121 28.6681147,77.0289834 45.5004764,79.9927811 L45.4996282,94.7122697 C20.0913058,91.589185 0.5,71.7040046 0.5,47.6390118 C0.5,23.5740189 20.0913058,3.68883847 45.4996282,0.565753855 Z" id="形状结合"></path>
            </g>
        </g>
    </g>
</svg>