<?xml version="1.0" encoding="UTF-8"?>
<svg width="101px" height="97px" viewBox="0 0 101 97" version="1.1" xmlns="http://www.w3.org/2000/svg" xmlns:xlink="http://www.w3.org/1999/xlink">
    <title>icon3</title>
    <g id="页面-1" stroke="none" stroke-width="1" fill="none" fill-rule="evenodd">
        <g id="桌面端" transform="translate(-577.000000, -266.000000)">
            <g id="icon3" transform="translate(577.000000, 266.000000)">
                <g id="编组-4" transform="translate(32.000000, 9.000000)" fill="#393737">
                    <circle id="椭圆形" cx="2" cy="2" r="2"></circle>
                    <circle id="椭圆形" cx="2" cy="11" r="2"></circle>
                    <circle id="椭圆形" cx="2" cy="21" r="2"></circle>
                    <circle id="椭圆形" cx="2" cy="30" r="2"></circle>
                    <circle id="椭圆形" cx="2" cy="40" r="2"></circle>
                    <circle id="椭圆形" cx="2" cy="49" r="2"></circle>
                    <circle id="椭圆形" cx="2" cy="58" r="2"></circle>
                    <circle id="椭圆形" cx="2" cy="68" r="2"></circle>
                    <circle id="椭圆形" cx="2" cy="77" r="2"></circle>
                </g>
                <g id="编组-4" transform="translate(21.000000, 15.000000)" fill="#393737">
                    <circle id="椭圆形" cx="2" cy="2" r="2"></circle>
                    <circle id="椭圆形" cx="2" cy="13" r="2"></circle>
                    <circle id="椭圆形" cx="2" cy="23" r="2"></circle>
                    <circle id="椭圆形" cx="2" cy="34" r="2"></circle>
                    <circle id="椭圆形" cx="2" cy="44" r="2"></circle>
                    <circle id="椭圆形" cx="2" cy="55" r="2"></circle>
                    <circle id="椭圆形" cx="2" cy="65" r="2"></circle>
                </g>
                <g id="编组-4" transform="translate(9.000000, 22.000000)" fill="#393737">
                    <circle id="椭圆形" cx="2" cy="2" r="2"></circle>
                    <circle id="椭圆形" cx="2" cy="15" r="2"></circle>
                    <circle id="椭圆形" cx="2" cy="27" r="2"></circle>
                    <circle id="椭圆形" cx="2" cy="39" r="2"></circle>
                    <circle id="椭圆形" cx="3" cy="52" r="2"></circle>
                </g>
                <g id="编组-4" transform="translate(0.000000, 29.000000)" fill="#393737">
                    <circle id="椭圆形" cx="2" cy="2" r="2"></circle>
                    <circle id="椭圆形" cx="2" cy="14" r="2"></circle>
                    <circle id="椭圆形" cx="2" cy="27" r="2"></circle>
                    <circle id="椭圆形" cx="2" cy="40" r="2"></circle>
                </g>
                <g id="编组-4" transform="translate(45.000000, 15.000000)" fill="#393737">
                    <circle id="椭圆形" cx="2" cy="2" r="2"></circle>
                    <circle id="椭圆形" cx="2" cy="13" r="2"></circle>
                    <circle id="椭圆形" cx="2" cy="23" r="2"></circle>
                    <circle id="椭圆形" cx="2" cy="34" r="2"></circle>
                    <circle id="椭圆形" cx="2" cy="44" r="2"></circle>
                    <circle id="椭圆形" cx="2" cy="55" r="2"></circle>
                    <circle id="椭圆形" cx="2" cy="65" r="2"></circle>
                </g>
                <circle id="椭圆形" stroke="#393737" cx="49.5" cy="48.5" r="33.5"></circle>
                <path d="M50,97 C78.1665222,97 101,75.2858104 101,48.5 C101,21.7141896 78.1645056,0 50,0 C50,0 50,16.1666667 50,48.5 C49.8956619,80.8333333 49.8956619,97 50,97 Z" id="椭圆形" fill="#FFF6A8"></path>
            </g>
        </g>
    </g>
</svg>